<?xml version="1.0" encoding="iso-8859-1"?>
<!-- Generator: Adobe Illustrator 19.0.0, SVG Export Plug-In . SVG Version: 6.00 Build 0)  -->
<svg version="1.1" id="Capa_1" xmlns="http://www.w3.org/2000/svg" xmlns:xlink="http://www.w3.org/1999/xlink" x="0px" y="0px"
	 viewBox="0 0 480 480" style="enable-background:new 0 0 480 480; fill:white" xml:space="preserve">
<g>
	<g>
		<path d="M40,464V0H24v16H0v16h24v96H0v16h24v96H0v16h24v96H0v16h24v104c0,4.418,3.582,8,8,8h448v-16H40z"/>
	</g>
</g>
<g>
	<g>
		<path d="M408.537,135.459c-13.404-0.148-24.391,10.598-24.539,24.002c-0.078,7.057,2.919,13.798,8.21,18.467l-47.264,118.168
			c-0.32,0-0.616-0.096-0.944-0.096c-3.564,0.014-7.078,0.834-10.28,2.4l-56.12-56.12c1.566-3.202,2.386-6.716,2.4-10.28
			c0.072-13.255-10.614-24.058-23.869-24.131s-24.058,10.614-24.131,23.869c-0.038,6.897,2.894,13.477,8.047,18.062v0
			l-54.896,134.32c-0.352-0.024-0.76-0.12-1.152-0.12c-4.461,0.013-8.828,1.283-12.6,3.664l-44.8-35.832
			c0.906-2.513,1.379-5.161,1.4-7.832c0-13.255-10.745-24-24-24s-24,10.745-24,24s10.745,24,24,24
			c4.461-0.013,8.828-1.283,12.6-3.664l44.8,35.832c-0.906,2.513-1.379,5.161-1.4,7.832c-0.072,13.255,10.614,24.058,23.869,24.131
			s24.058-10.614,24.131-23.869c0.038-6.897-2.894-13.477-8.047-18.062l54.896-134.32c0.392,0,0.76,0.12,1.152,0.12
			c3.564-0.014,7.078-0.834,10.28-2.4l56.12,56.12c-1.566,3.202-2.386,6.716-2.4,10.28c-0.08,13.255,10.601,24.064,23.856,24.144
			c13.255,0.08,24.064-10.601,24.144-23.856c0.042-6.976-2.954-13.625-8.207-18.216l47.264-118.168c0.32,0,0.616,0.096,0.944,0.096
			c13.404,0.148,24.391-10.598,24.539-24.002S421.942,135.607,408.537,135.459z M104,352c-4.418,0-8-3.582-8-8s3.582-8,8-8
			s8,3.582,8,8S108.418,352,104,352z M184,416c-4.418,0-8-3.582-8-8s3.582-8,8-8s8,3.582,8,8S188.418,416,184,416z M256,240
			c-4.418,0-8-3.582-8-8s3.582-8,8-8s8,3.582,8,8S260.418,240,256,240z M344,328c-4.418,0-8-3.582-8-8s3.582-8,8-8s8,3.582,8,8
			S348.418,328,344,328z M408,168c-4.418,0-8-3.582-8-8s3.582-8,8-8s8,3.582,8,8S412.418,168,408,168z"/>
	</g>
</g>
<g>
	<g>
		<rect x="72" y="16" width="16" height="16"/>
	</g>
</g>
<g>
	<g>
		<rect x="104" y="16" width="96" height="16"/>
	</g>
</g>
<g>
	<g>
		<rect x="72" y="48" width="128" height="16"/>
	</g>
</g>
<g>
	<g>
		<rect x="72" y="80" width="128" height="16"/>
	</g>
</g>
<g>
</g>
<g>
</g>
<g>
</g>
<g>
</g>
<g>
</g>
<g>
</g>
<g>
</g>
<g>
</g>
<g>
</g>
<g>
</g>
<g>
</g>
<g>
</g>
<g>
</g>
<g>
</g>
<g>
</g>
</svg>
